# MagicaVoxel @ Ephtracy

# group
o 

# material
mtllib KlausurD.mtl
usemtl palette

# normals
vn -1 0 0
vn 1 0 0
vn 0 0 1
vn 0 0 -1
vn 0 -1 0
vn 0 1 0

# texcoords
vt 0.00195313 0.5
vt 0.845703 0.5
vt 0.958984 0.5
vt 0.962891 0.5

# verts
v -1.5 0 0.1
v -1.5 0 -0.3
v -1.5 4 0.1
v -1.5 4 -0.3
v 1.5 0 0.1
v 1.5 0 -0.3
v 1.5 0.5 -0.2
v 1.5 0.5 -0.3
v 1.5 0.6 -0.2
v 1.5 0.6 -0.3
v 1.5 0.8 -1.49012e-08
v 1.5 0.8 -0.1
v 1.5 0.9 -1.49012e-08
v 1.5 0.9 -0.1
v 1.5 1.1 -1.49012e-08
v 1.5 1.1 -0.1
v 1.5 1.2 -1.49012e-08
v 1.5 1.2 -0.1
v 1.5 1.4 -0.1
v 1.5 1.4 -0.2
v 1.5 1.5 -0.1
v 1.5 1.5 -0.2
v 1.5 1.9 -0.1
v 1.5 1.9 -0.2
v 1.5 2 -0.1
v 1.5 2 -0.2
v 1.5 2.1 -1.49012e-08
v 1.5 2.1 -0.1
v 1.5 2.2 -1.49012e-08
v 1.5 2.2 -0.1
v 1.5 2.3 -1.49012e-08
v 1.5 2.3 -0.1
v 1.5 2.4 -1.49012e-08
v 1.5 2.4 -0.1
v 1.5 2.6 -0.1
v 1.5 2.6 -0.2
v 1.5 2.7 -0.1
v 1.5 2.7 -0.2
v 1.5 3.6 -1.49012e-08
v 1.5 3.6 -0.1
v 1.5 3.7 -1.49012e-08
v 1.5 3.7 -0.1
v 1.5 3.8 -0.1
v 1.5 3.8 -0.2
v 1.5 3.9 -1.49012e-08
v 1.5 3.9 -0.1
v 1.5 3.9 -0.2
v 1.5 3.9 -0.3
v 1.5 4 0.1
v 1.5 4 -1.49012e-08
v 1.5 4 -0.1
v 1.5 4 -0.2
v 1.5 4 -0.3
v -1.5 0 0.1
v -1.5 4 0.1
v -1.3 0.3 0.1
v -1.3 0.6 0.1
v -1.3 0.7 0.1
v -1.3 0.8 0.1
v -1.3 0.9 0.1
v -1.3 2 0.1
v -1.3 2.1 0.1
v -1.3 2.2 0.1
v -1.3 2.3 0.1
v -1.3 2.4 0.1
v -1.3 2.5 0.1
v -1.3 2.6 0.1
v -1.3 2.7 0.1
v -1.3 2.8 0.1
v -1.3 2.9 0.1
v -1.3 3.1 0.1
v -1.3 3.3 0.1
v -1.3 3.4 0.1
v -1.3 3.5 0.1
v -1.3 3.7 0.1
v -0.7 3 0.1
v -0.7 3.1 0.1
v -0.7 3.3 0.1
v -0.7 3.4 0.1
v -0.7 3.5 0.1
v -0.7 3.7 0.1
v -0.5 1.2 0.1
v -0.5 2 0.1
v -0.5 2.1 0.1
v -0.5 2.2 0.1
v -0.5 2.3 0.1
v -0.5 2.4 0.1
v -0.5 2.5 0.1
v -0.5 2.6 0.1
v -0.5 2.7 0.1
v -0.5 2.8 0.1
v -0.5 2.9 0.1
v -0.5 3 0.1
v -0.4 1.1 0.1
v -0.4 1.2 0.1
v -0.4 3 0.1
v -0.4 3.1 0.1
v -0.3 1.4 0.1
v -0.3 2 0.1
v -0.3 2.1 0.1
v -0.3 2.2 0.1
v -0.3 2.3 0.1
v -0.3 2.4 0.1
v -0.3 2.5 0.1
v -0.3 2.6 0.1
v -0.3 2.7 0.1
v -0.3 2.8 0.1
v -0.2 1.3 0.1
v -0.2 1.4 0.1
v -0.2 2.8 0.1
v -0.2 2.9 0.1
v 0.1 1.1 0.1
v 0.1 1.2 0.1
v 0.1 1.3 0.1
v 0.1 1.4 0.1
v 0.1 2.8 0.1
v 0.1 2.9 0.1
v 0.1 3 0.1
v 0.1 3.1 0.1
v 0.2 1.4 0.1
v 0.2 1.5 0.1
v 0.2 2.7 0.1
v 0.2 2.8 0.1
v 0.3 1.2 0.1
v 0.3 1.3 0.1
v 0.3 1.5 0.1
v 0.3 1.6 0.1
v 0.3 2.6 0.1
v 0.3 2.7 0.1
v 0.3 2.9 0.1
v 0.3 3 0.1
v 0.4 1.3 0.1
v 0.4 1.4 0.1
v 0.4 1.6 0.1
v 0.4 1.7 0.1
v 0.4 2.4 0.1
v 0.4 2.5 0.1
v 0.4 2.6 0.1
v 0.4 2.8 0.1
v 0.4 2.9 0.1
v 0.5 1.4 0.1
v 0.5 1.5 0.1
v 0.5 1.7 0.1
v 0.5 2 0.1
v 0.5 2.1 0.1
v 0.5 2.2 0.1
v 0.5 2.3 0.1
v 0.5 2.4 0.1
v 0.5 2.6 0.1
v 0.5 2.7 0.1
v 0.5 2.8 0.1
v 0.6 1.5 0.1
v 0.6 1.6 0.1
v 0.6 2.4 0.1
v 0.6 2.5 0.1
v 0.6 2.6 0.1
v 0.6 2.7 0.1
v 0.6 2.8 0.1
v 0.7 1.6 0.1
v 0.7 2 0.1
v 0.7 2.1 0.1
v 0.7 2.2 0.1
v 0.7 2.3 0.1
v 0.7 2.4 0.1
v 0.8 2.5 0.1
v 0.8 2.6 0.1
v 1.3 0.3 0.1
v 1.3 0.6 0.1
v 1.3 0.7 0.1
v 1.3 0.8 0.1
v 1.3 0.9 0.1
v 1.3 2 0.1
v 1.3 2.1 0.1
v 1.3 2.2 0.1
v 1.3 2.3 0.1
v 1.3 2.4 0.1
v 1.3 2.9 0.1
v 1.3 3 0.1
v 1.5 0 0.1
v 1.5 4 0.1
v -1.5 0 -0.3
v -1.5 4 -0.3
v 1.4 0.5 -0.3
v 1.4 0.6 -0.3
v 1.4 3.9 -0.3
v 1.4 4 -0.3
v 1.5 0 -0.3
v 1.5 0.5 -0.3
v 1.5 0.6 -0.3
v 1.5 3.9 -0.3
v 1.5 4 -0.3
v -1.5 0 0.1
v 1.5 0 0.1
v -1.5 0 -0.3
v 1.5 0 -0.3
v -1.5 4 0.1
v 1.5 4 0.1
v 1.4 4 -1.49012e-08
v 1.5 4 -1.49012e-08
v 1.4 4 -0.1
v 1.5 4 -0.1
v 1.4 4 -0.2
v 1.5 4 -0.2
v -1.5 4 -0.3
v 1.4 4 -0.3
v 1.5 4 -0.3

# faces
f 3/1/1 2/1/1 1/1/1
f 4/1/1 2/1/1 3/1/1
f 5/1/2 6/1/2 7/1/2
f 7/1/2 6/1/2 8/1/2
f 5/1/2 7/1/2 9/1/2
f 7/3/2 8/3/2 9/3/2
f 9/3/2 8/3/2 10/3/2
f 5/1/2 9/1/2 11/1/2
f 9/1/2 10/1/2 11/1/2
f 11/1/2 10/1/2 12/1/2
f 5/1/2 11/1/2 13/1/2
f 11/3/2 12/3/2 13/3/2
f 12/1/2 10/1/2 14/1/2
f 13/3/2 12/3/2 14/3/2
f 5/1/2 13/1/2 15/1/2
f 13/1/2 14/1/2 15/1/2
f 14/1/2 10/1/2 16/1/2
f 15/1/2 14/1/2 16/1/2
f 5/1/2 15/1/2 17/1/2
f 15/3/2 16/3/2 17/3/2
f 16/1/2 10/1/2 18/1/2
f 17/3/2 16/3/2 18/3/2
f 17/1/2 18/1/2 19/1/2
f 18/1/2 10/1/2 19/1/2
f 19/1/2 10/1/2 20/1/2
f 17/1/2 19/1/2 21/1/2
f 19/3/2 20/3/2 21/3/2
f 20/1/2 10/1/2 22/1/2
f 21/3/2 20/3/2 22/3/2
f 17/1/2 21/1/2 23/1/2
f 21/1/2 22/1/2 23/1/2
f 22/1/2 10/1/2 24/1/2
f 23/1/2 22/1/2 24/1/2
f 17/1/2 23/1/2 25/1/2
f 23/3/2 24/3/2 25/3/2
f 24/1/2 10/1/2 26/1/2
f 25/3/2 24/3/2 26/3/2
f 5/1/2 17/1/2 27/1/2
f 17/1/2 25/1/2 27/1/2
f 25/1/2 26/1/2 27/1/2
f 27/1/2 26/1/2 28/1/2
f 5/1/2 27/1/2 29/1/2
f 27/3/2 28/3/2 29/3/2
f 28/1/2 26/1/2 30/1/2
f 29/3/2 28/3/2 30/3/2
f 5/1/2 29/1/2 31/1/2
f 29/1/2 30/1/2 31/1/2
f 30/1/2 26/1/2 32/1/2
f 31/1/2 30/1/2 32/1/2
f 5/1/2 31/1/2 33/1/2
f 31/3/2 32/3/2 33/3/2
f 32/1/2 26/1/2 34/1/2
f 33/3/2 32/3/2 34/3/2
f 33/1/2 34/1/2 35/1/2
f 34/1/2 26/1/2 35/1/2
f 26/1/2 10/1/2 36/1/2
f 35/1/2 26/1/2 36/1/2
f 33/1/2 35/1/2 37/1/2
f 35/3/2 36/3/2 37/3/2
f 36/1/2 10/1/2 38/1/2
f 37/3/2 36/3/2 38/3/2
f 33/1/2 37/1/2 39/1/2
f 5/1/2 33/1/2 39/1/2
f 37/1/2 38/1/2 39/1/2
f 39/1/2 38/1/2 40/1/2
f 5/1/2 39/1/2 41/1/2
f 39/3/2 40/3/2 41/3/2
f 40/1/2 38/1/2 42/1/2
f 41/3/2 40/3/2 42/3/2
f 41/1/2 42/1/2 43/1/2
f 42/1/2 38/1/2 43/1/2
f 38/1/2 10/1/2 44/1/2
f 43/1/2 38/1/2 44/1/2
f 41/1/2 43/1/2 45/1/2
f 5/1/2 41/1/2 45/1/2
f 43/3/2 44/3/2 46/3/2
f 45/1/2 43/1/2 46/1/2
f 44/1/2 10/1/2 47/1/2
f 46/3/2 44/3/2 47/3/2
f 47/1/2 10/1/2 48/1/2
f 5/1/2 45/1/2 49/1/2
f 45/3/2 46/3/2 50/3/2
f 49/1/2 45/1/2 50/1/2
f 46/1/2 47/1/2 51/1/2
f 50/3/2 46/3/2 51/3/2
f 47/3/2 48/3/2 52/3/2
f 51/1/2 47/1/2 52/1/2
f 52/3/2 48/3/2 53/3/2
f 56/1/3 55/1/3 54/1/3
f 57/1/3 55/1/3 56/1/3
f 58/1/3 55/1/3 57/1/3
f 59/1/3 55/1/3 58/1/3
f 60/1/3 55/1/3 59/1/3
f 61/1/3 55/1/3 60/1/3
f 62/1/3 55/1/3 61/1/3
f 63/1/3 55/1/3 62/1/3
f 64/1/3 55/1/3 63/1/3
f 65/1/3 55/1/3 64/1/3
f 66/1/3 55/1/3 65/1/3
f 67/1/3 55/1/3 66/1/3
f 68/1/3 55/1/3 67/1/3
f 69/1/3 55/1/3 68/1/3
f 70/1/3 55/1/3 69/1/3
f 71/1/3 55/1/3 70/1/3
f 72/1/3 55/1/3 71/1/3
f 73/1/3 55/1/3 72/1/3
f 74/1/3 55/1/3 73/1/3
f 75/1/3 55/1/3 74/1/3
f 76/4/3 71/4/3 70/4/3
f 77/1/3 72/1/3 71/1/3
f 77/4/3 71/4/3 76/4/3
f 78/4/3 73/4/3 72/4/3
f 78/1/3 72/1/3 77/1/3
f 79/1/3 74/1/3 73/1/3
f 79/4/3 73/4/3 78/4/3
f 80/4/3 75/4/3 74/4/3
f 80/1/3 74/1/3 79/1/3
f 81/1/3 55/1/3 75/1/3
f 81/4/3 75/4/3 80/4/3
f 82/4/3 61/4/3 60/4/3
f 83/1/3 62/1/3 61/1/3
f 83/4/3 61/4/3 82/4/3
f 84/4/3 63/4/3 62/4/3
f 84/1/3 62/1/3 83/1/3
f 85/1/3 64/1/3 63/1/3
f 85/4/3 63/4/3 84/4/3
f 86/4/3 65/4/3 64/4/3
f 86/1/3 64/1/3 85/1/3
f 87/1/3 66/1/3 65/1/3
f 87/4/3 65/4/3 86/4/3
f 88/4/3 67/4/3 66/4/3
f 88/1/3 66/1/3 87/1/3
f 89/1/3 68/1/3 67/1/3
f 89/4/3 67/4/3 88/4/3
f 90/4/3 69/4/3 68/4/3
f 90/1/3 68/1/3 89/1/3
f 91/1/3 70/1/3 69/1/3
f 91/4/3 69/4/3 90/4/3
f 92/4/3 76/4/3 70/4/3
f 92/1/3 70/1/3 91/1/3
f 93/1/3 80/1/3 79/1/3
f 93/4/3 76/4/3 92/4/3
f 93/1/3 77/1/3 76/1/3
f 93/1/3 81/1/3 80/1/3
f 93/1/3 79/1/3 78/1/3
f 93/1/3 78/1/3 77/1/3
f 94/4/3 82/4/3 60/4/3
f 95/2/3 83/2/3 82/2/3
f 95/4/3 82/4/3 94/4/3
f 95/2/3 84/2/3 83/2/3
f 95/2/3 93/2/3 92/2/3
f 95/2/3 91/2/3 90/2/3
f 95/2/3 92/2/3 91/2/3
f 95/2/3 90/2/3 89/2/3
f 95/2/3 89/2/3 88/2/3
f 95/2/3 88/2/3 87/2/3
f 95/2/3 87/2/3 86/2/3
f 95/2/3 86/2/3 85/2/3
f 95/2/3 85/2/3 84/2/3
f 96/1/3 81/1/3 93/1/3
f 96/2/3 93/2/3 95/2/3
f 97/1/3 81/1/3 96/1/3
f 98/2/3 95/2/3 94/2/3
f 98/2/3 96/2/3 95/2/3
f 98/2/3 97/2/3 96/2/3
f 99/2/3 97/2/3 98/2/3
f 100/2/3 97/2/3 99/2/3
f 101/2/3 97/2/3 100/2/3
f 102/2/3 97/2/3 101/2/3
f 103/2/3 97/2/3 102/2/3
f 104/2/3 97/2/3 103/2/3
f 105/2/3 97/2/3 104/2/3
f 106/2/3 97/2/3 105/2/3
f 107/2/3 97/2/3 106/2/3
f 108/2/3 98/2/3 94/2/3
f 109/4/3 99/4/3 98/4/3
f 109/2/3 98/2/3 108/2/3
f 110/2/3 97/2/3 107/2/3
f 110/4/3 107/4/3 106/4/3
f 111/2/3 97/2/3 110/2/3
f 112/4/3 94/4/3 60/4/3
f 112/2/3 108/2/3 94/2/3
f 113/2/3 108/2/3 112/2/3
f 114/4/3 109/4/3 108/4/3
f 114/2/3 108/2/3 113/2/3
f 115/4/3 99/4/3 109/4/3
f 115/4/3 109/4/3 114/4/3
f 116/1/3 111/1/3 110/1/3
f 116/4/3 110/4/3 106/4/3
f 117/2/3 97/2/3 111/2/3
f 117/1/3 111/1/3 116/1/3
f 118/2/3 97/2/3 117/2/3
f 119/1/3 81/1/3 97/1/3
f 119/2/3 97/2/3 118/2/3
f 120/2/3 114/2/3 113/2/3
f 120/4/3 99/4/3 115/4/3
f 120/2/3 115/2/3 114/2/3
f 121/4/3 99/4/3 120/4/3
f 122/4/3 116/4/3 106/4/3
f 122/1/3 106/1/3 105/1/3
f 123/2/3 118/2/3 117/2/3
f 123/4/3 116/4/3 122/4/3
f 123/2/3 117/2/3 116/2/3
f 124/2/3 121/2/3 120/2/3
f 124/4/3 113/4/3 112/4/3
f 124/2/3 120/2/3 113/2/3
f 125/2/3 121/2/3 124/2/3
f 126/4/3 99/4/3 121/4/3
f 126/2/3 121/2/3 125/2/3
f 127/4/3 99/4/3 126/4/3
f 128/1/3 122/1/3 105/1/3
f 128/4/3 105/4/3 104/4/3
f 129/2/3 123/2/3 122/2/3
f 129/1/3 122/1/3 128/1/3
f 130/2/3 118/2/3 123/2/3
f 130/2/3 123/2/3 129/2/3
f 131/1/3 119/1/3 118/1/3
f 131/2/3 118/2/3 130/2/3
f 132/4/3 125/4/3 124/4/3
f 132/2/3 127/2/3 126/2/3
f 132/2/3 126/2/3 125/2/3
f 133/2/3 127/2/3 132/2/3
f 134/4/3 99/4/3 127/4/3
f 134/2/3 127/2/3 133/2/3
f 135/4/3 99/4/3 134/4/3
f 136/4/3 103/4/3 102/4/3
f 136/1/3 104/1/3 103/1/3
f 137/4/3 128/4/3 104/4/3
f 137/1/3 104/1/3 136/1/3
f 138/2/3 130/2/3 129/2/3
f 138/4/3 128/4/3 137/4/3
f 138/2/3 129/2/3 128/2/3
f 139/2/3 130/2/3 138/2/3
f 140/4/3 131/4/3 130/4/3
f 140/2/3 130/2/3 139/2/3
f 141/4/3 133/4/3 132/4/3
f 141/2/3 135/2/3 134/2/3
f 141/2/3 134/2/3 133/2/3
f 142/2/3 135/2/3 141/2/3
f 143/4/3 99/4/3 135/4/3
f 143/2/3 135/2/3 142/2/3
f 144/1/3 100/1/3 99/1/3
f 144/4/3 99/4/3 143/4/3
f 145/4/3 101/4/3 100/4/3
f 145/1/3 100/1/3 144/1/3
f 146/1/3 102/1/3 101/1/3
f 146/4/3 101/4/3 145/4/3
f 147/4/3 136/4/3 102/4/3
f 147/1/3 102/1/3 146/1/3
f 148/2/3 137/2/3 136/2/3
f 148/4/3 136/4/3 147/4/3
f 148/2/3 139/2/3 138/2/3
f 148/2/3 138/2/3 137/2/3
f 149/2/3 139/2/3 148/2/3
f 150/2/3 139/2/3 149/2/3
f 151/1/3 140/1/3 139/1/3
f 151/2/3 139/2/3 150/2/3
f 152/2/3 147/2/3 146/2/3
f 152/2/3 143/2/3 142/2/3
f 152/2/3 144/2/3 143/2/3
f 152/2/3 149/2/3 148/2/3
f 152/2/3 148/2/3 147/2/3
f 152/2/3 145/2/3 144/2/3
f 152/4/3 142/4/3 141/4/3
f 152/2/3 146/2/3 145/2/3
f 153/2/3 149/2/3 152/2/3
f 154/2/3 149/2/3 153/2/3
f 155/2/3 149/2/3 154/2/3
f 156/1/3 150/1/3 149/1/3
f 156/2/3 149/2/3 155/2/3
f 157/4/3 151/4/3 150/4/3
f 157/1/3 150/1/3 156/1/3
f 158/1/3 140/1/3 151/1/3
f 158/4/3 151/4/3 157/4/3
f 159/4/3 153/4/3 152/4/3
f 159/2/3 154/2/3 153/2/3
f 160/2/3 154/2/3 159/2/3
f 161/2/3 154/2/3 160/2/3
f 162/2/3 154/2/3 161/2/3
f 163/2/3 154/2/3 162/2/3
f 164/1/3 155/1/3 154/1/3
f 164/2/3 154/2/3 163/2/3
f 165/4/3 156/4/3 155/4/3
f 165/1/3 155/1/3 164/1/3
f 166/1/3 157/1/3 156/1/3
f 166/4/3 156/4/3 165/4/3
f 166/1/3 158/1/3 157/1/3
f 167/1/3 56/1/3 54/1/3
f 167/4/3 57/4/3 56/4/3
f 168/1/3 58/1/3 57/1/3
f 168/4/3 57/4/3 167/4/3
f 169/4/3 59/4/3 58/4/3
f 169/1/3 58/1/3 168/1/3
f 170/1/3 60/1/3 59/1/3
f 170/4/3 59/4/3 169/4/3
f 171/4/3 124/4/3 112/4/3
f 171/1/3 60/1/3 170/1/3
f 171/4/3 112/4/3 60/4/3
f 171/4/3 132/4/3 124/4/3
f 171/4/3 160/4/3 159/4/3
f 171/4/3 159/4/3 152/4/3
f 171/4/3 141/4/3 132/4/3
f 171/4/3 152/4/3 141/4/3
f 172/1/3 161/1/3 160/1/3
f 172/4/3 160/4/3 171/4/3
f 173/4/3 162/4/3 161/4/3
f 173/1/3 161/1/3 172/1/3
f 174/1/3 163/1/3 162/1/3
f 174/4/3 162/4/3 173/4/3
f 175/4/3 164/4/3 163/4/3
f 175/1/3 163/1/3 174/1/3
f 176/1/3 166/1/3 165/1/3
f 176/4/3 164/4/3 175/4/3
f 176/1/3 165/1/3 164/1/3
f 177/1/3 158/1/3 166/1/3
f 177/1/3 166/1/3 176/1/3
f 177/4/3 131/4/3 140/4/3
f 177/1/3 140/1/3 158/1/3
f 178/1/3 119/1/3 131/1/3
f 178/4/3 131/4/3 177/4/3
f 179/1/3 176/1/3 175/1/3
f 179/1/3 175/1/3 174/1/3
f 179/1/3 178/1/3 177/1/3
f 179/1/3 171/1/3 170/1/3
f 179/1/3 170/1/3 169/1/3
f 179/1/3 174/1/3 173/1/3
f 179/1/3 172/1/3 171/1/3
f 179/1/3 167/1/3 54/1/3
f 179/1/3 177/1/3 176/1/3
f 179/1/3 173/1/3 172/1/3
f 179/1/3 168/1/3 167/1/3
f 179/1/3 169/1/3 168/1/3
f 180/1/3 119/1/3 178/1/3
f 180/1/3 178/1/3 179/1/3
f 180/1/3 81/1/3 119/1/3
f 180/1/3 55/1/3 81/1/3
f 181/1/4 182/1/4 183/1/4
f 183/1/4 182/1/4 184/1/4
f 184/1/4 182/1/4 185/1/4
f 185/1/4 182/1/4 186/1/4
f 181/1/4 183/1/4 187/1/4
f 183/3/4 184/3/4 188/3/4
f 187/1/4 183/1/4 188/1/4
f 184/1/4 185/1/4 189/1/4
f 188/3/4 184/3/4 189/3/4
f 185/3/4 186/3/4 190/3/4
f 189/1/4 185/1/4 190/1/4
f 190/3/4 186/3/4 191/3/4
f 194/1/5 193/1/5 192/1/5
f 195/1/5 193/1/5 194/1/5
f 196/1/6 197/1/6 198/1/6
f 198/1/6 197/1/6 199/1/6
f 196/1/6 198/1/6 200/1/6
f 198/3/6 199/3/6 200/3/6
f 200/3/6 199/3/6 201/3/6
f 196/1/6 200/1/6 202/1/6
f 200/1/6 201/1/6 202/1/6
f 202/1/6 201/1/6 203/1/6
f 196/1/6 202/1/6 204/1/6
f 202/3/6 203/3/6 205/3/6
f 204/1/6 202/1/6 205/1/6
f 205/3/6 203/3/6 206/3/6
