# MagicaVoxel @ Ephtracy

# group
o 

# material
mtllib KlausurF.mtl
usemtl palette

# normals
vn -1 0 0
vn 1 0 0
vn 0 0 1
vn 0 0 -1
vn 0 -1 0
vn 0 1 0

# texcoords
vt 0.00195313 0.5
vt 0.845703 0.5
vt 0.962891 0.5

# verts
v -1.5 0 0.1
v -1.5 0 -0.1
v -1.5 4 0.1
v -1.5 4 -0.1
v 1.5 0 0.1
v 1.5 0 -0.1
v 1.5 4 0.1
v 1.5 4 -0.1
v -1.5 0 0.1
v -1.5 4 0.1
v -1.3 0.3 0.1
v -1.3 0.6 0.1
v -1.3 0.7 0.1
v -1.3 0.8 0.1
v -1.3 0.9 0.1
v -1.3 2 0.1
v -1.3 2.1 0.1
v -1.3 2.2 0.1
v -1.3 2.3 0.1
v -1.3 2.4 0.1
v -1.3 2.5 0.1
v -1.3 2.6 0.1
v -1.3 2.7 0.1
v -1.3 2.8 0.1
v -1.3 2.9 0.1
v -1.3 3.1 0.1
v -1.3 3.3 0.1
v -1.3 3.4 0.1
v -1.3 3.5 0.1
v -1.3 3.7 0.1
v -0.7 3 0.1
v -0.7 3.1 0.1
v -0.7 3.3 0.1
v -0.7 3.4 0.1
v -0.7 3.5 0.1
v -0.7 3.7 0.1
v -0.6 0.9 0.1
v -0.6 2 0.1
v -0.6 2.1 0.1
v -0.6 2.2 0.1
v -0.6 2.3 0.1
v -0.6 2.4 0.1
v -0.6 2.5 0.1
v -0.6 2.6 0.1
v -0.6 2.7 0.1
v -0.6 2.8 0.1
v -0.6 2.9 0.1
v -0.6 3 0.1
v -0.6 3.1 0.1
v -0.5 0.8 0.1
v -0.5 0.9 0.1
v -0.5 3.1 0.1
v -0.5 3.2 0.1
v -0.4 0.8 0.1
v -0.4 0.9 0.1
v -0.4 2 0.1
v -0.4 2.3 0.1
v -0.4 2.4 0.1
v -0.4 2.5 0.1
v -0.4 2.6 0.1
v -0.4 2.7 0.1
v -0.4 2.8 0.1
v -0.4 2.9 0.1
v -0.4 3 0.1
v -0.4 3.2 0.1
v -0.4 3.3 0.1
v -0.3 2 0.1
v -0.3 2.1 0.1
v -0.3 3 0.1
v -0.3 3.1 0.1
v 0.4 2.2 0.1
v 0.4 2.3 0.1
v 0.5 2.1 0.1
v 0.5 2.2 0.1
v 0.6 2.7 0.1
v 0.6 2.8 0.1
v 0.6 3.2 0.1
v 0.6 3.3 0.1
v 0.7 3.1 0.1
v 0.7 3.2 0.1
v 0.8 2.5 0.1
v 0.8 2.6 0.1
v 1.3 0.3 0.1
v 1.3 0.6 0.1
v 1.3 0.7 0.1
v 1.3 0.8 0.1
v 1.3 0.9 0.1
v 1.3 2 0.1
v 1.3 2.1 0.1
v 1.3 2.2 0.1
v 1.3 2.3 0.1
v 1.3 2.4 0.1
v 1.3 2.9 0.1
v 1.3 3 0.1
v 1.5 0 0.1
v 1.5 4 0.1
v -1.5 0 -0.1
v -1.5 4 -0.1
v -1.3 0.3 -0.1
v -1.3 0.6 -0.1
v -1.3 0.7 -0.1
v -1.3 0.8 -0.1
v -1.3 0.9 -0.1
v -1.3 2 -0.1
v -1.3 2.1 -0.1
v -1.3 2.2 -0.1
v -1.3 2.3 -0.1
v -1.3 2.4 -0.1
v -1.3 2.5 -0.1
v -1.3 2.6 -0.1
v -1.3 2.7 -0.1
v -1.3 2.8 -0.1
v -1.3 2.9 -0.1
v -1.3 3.1 -0.1
v -1.3 3.3 -0.1
v -1.3 3.4 -0.1
v -1.3 3.5 -0.1
v -1.3 3.7 -0.1
v -0.7 3 -0.1
v -0.7 3.1 -0.1
v -0.7 3.3 -0.1
v -0.7 3.4 -0.1
v -0.7 3.5 -0.1
v -0.7 3.7 -0.1
v -0.6 0.9 -0.1
v -0.6 2 -0.1
v -0.6 2.1 -0.1
v -0.6 2.2 -0.1
v -0.6 2.3 -0.1
v -0.6 2.4 -0.1
v -0.6 2.5 -0.1
v -0.6 2.6 -0.1
v -0.6 2.7 -0.1
v -0.6 2.8 -0.1
v -0.6 2.9 -0.1
v -0.6 3 -0.1
v -0.6 3.1 -0.1
v -0.5 0.8 -0.1
v -0.5 0.9 -0.1
v -0.5 3.1 -0.1
v -0.5 3.2 -0.1
v -0.4 0.8 -0.1
v -0.4 0.9 -0.1
v -0.4 2 -0.1
v -0.4 2.3 -0.1
v -0.4 2.4 -0.1
v -0.4 2.5 -0.1
v -0.4 2.6 -0.1
v -0.4 2.7 -0.1
v -0.4 2.8 -0.1
v -0.4 2.9 -0.1
v -0.4 3 -0.1
v -0.4 3.2 -0.1
v -0.4 3.3 -0.1
v -0.3 2 -0.1
v -0.3 2.1 -0.1
v -0.3 3 -0.1
v -0.3 3.1 -0.1
v 0.4 2.2 -0.1
v 0.4 2.3 -0.1
v 0.5 2.1 -0.1
v 0.5 2.2 -0.1
v 0.6 2.7 -0.1
v 0.6 2.8 -0.1
v 0.6 3.2 -0.1
v 0.6 3.3 -0.1
v 0.7 3.1 -0.1
v 0.7 3.2 -0.1
v 0.8 2.5 -0.1
v 0.8 2.6 -0.1
v 1.3 0.3 -0.1
v 1.3 0.6 -0.1
v 1.3 0.7 -0.1
v 1.3 0.8 -0.1
v 1.3 0.9 -0.1
v 1.3 2 -0.1
v 1.3 2.1 -0.1
v 1.3 2.2 -0.1
v 1.3 2.3 -0.1
v 1.3 2.4 -0.1
v 1.3 2.9 -0.1
v 1.3 3 -0.1
v 1.5 0 -0.1
v 1.5 4 -0.1
v -1.5 0 0.1
v 1.5 0 0.1
v -1.5 0 -0.1
v 1.5 0 -0.1
v -1.5 4 0.1
v 1.5 4 0.1
v -1.5 4 -0.1
v 1.5 4 -0.1

# faces
f 3/1/1 2/1/1 1/1/1
f 4/1/1 2/1/1 3/1/1
f 5/1/2 6/1/2 7/1/2
f 7/1/2 6/1/2 8/1/2
f 11/1/3 10/1/3 9/1/3
f 12/1/3 10/1/3 11/1/3
f 13/1/3 10/1/3 12/1/3
f 14/1/3 10/1/3 13/1/3
f 15/1/3 10/1/3 14/1/3
f 16/1/3 10/1/3 15/1/3
f 17/1/3 10/1/3 16/1/3
f 18/1/3 10/1/3 17/1/3
f 19/1/3 10/1/3 18/1/3
f 20/1/3 10/1/3 19/1/3
f 21/1/3 10/1/3 20/1/3
f 22/1/3 10/1/3 21/1/3
f 23/1/3 10/1/3 22/1/3
f 24/1/3 10/1/3 23/1/3
f 25/1/3 10/1/3 24/1/3
f 26/1/3 10/1/3 25/1/3
f 27/1/3 10/1/3 26/1/3
f 28/1/3 10/1/3 27/1/3
f 29/1/3 10/1/3 28/1/3
f 30/1/3 10/1/3 29/1/3
f 31/3/3 26/3/3 25/3/3
f 32/1/3 27/1/3 26/1/3
f 32/3/3 26/3/3 31/3/3
f 33/3/3 28/3/3 27/3/3
f 33/1/3 27/1/3 32/1/3
f 34/1/3 29/1/3 28/1/3
f 34/3/3 28/3/3 33/3/3
f 35/3/3 30/3/3 29/3/3
f 35/1/3 29/1/3 34/1/3
f 36/1/3 10/1/3 30/1/3
f 36/3/3 30/3/3 35/3/3
f 37/1/3 15/1/3 14/1/3
f 37/3/3 16/3/3 15/3/3
f 38/1/3 17/1/3 16/1/3
f 38/3/3 16/3/3 37/3/3
f 39/3/3 18/3/3 17/3/3
f 39/1/3 17/1/3 38/1/3
f 40/1/3 19/1/3 18/1/3
f 40/3/3 18/3/3 39/3/3
f 41/3/3 20/3/3 19/3/3
f 41/1/3 19/1/3 40/1/3
f 42/1/3 21/1/3 20/1/3
f 42/3/3 20/3/3 41/3/3
f 43/3/3 22/3/3 21/3/3
f 43/1/3 21/1/3 42/1/3
f 44/1/3 23/1/3 22/1/3
f 44/3/3 22/3/3 43/3/3
f 45/3/3 24/3/3 23/3/3
f 45/1/3 23/1/3 44/1/3
f 46/1/3 25/1/3 24/1/3
f 46/3/3 24/3/3 45/3/3
f 47/3/3 31/3/3 25/3/3
f 47/1/3 25/1/3 46/1/3
f 48/1/3 36/1/3 35/1/3
f 48/3/3 31/3/3 47/3/3
f 48/1/3 35/1/3 34/1/3
f 48/1/3 34/1/3 33/1/3
f 48/1/3 33/1/3 32/1/3
f 48/1/3 32/1/3 31/1/3
f 49/1/3 36/1/3 48/1/3
f 50/3/3 14/3/3 13/3/3
f 50/1/3 37/1/3 14/1/3
f 51/2/3 47/2/3 46/2/3
f 51/1/3 37/1/3 50/1/3
f 51/2/3 49/2/3 48/2/3
f 51/2/3 48/2/3 47/2/3
f 51/2/3 46/2/3 45/2/3
f 51/2/3 45/2/3 44/2/3
f 51/2/3 44/2/3 43/2/3
f 51/2/3 43/2/3 42/2/3
f 51/2/3 42/2/3 41/2/3
f 51/2/3 41/2/3 40/2/3
f 51/2/3 40/2/3 39/2/3
f 51/2/3 39/2/3 38/2/3
f 51/2/3 38/2/3 37/2/3
f 52/1/3 36/1/3 49/1/3
f 52/2/3 49/2/3 51/2/3
f 53/1/3 36/1/3 52/1/3
f 54/2/3 51/2/3 50/2/3
f 54/3/3 50/3/3 13/3/3
f 54/2/3 53/2/3 52/2/3
f 54/2/3 52/2/3 51/2/3
f 55/2/3 53/2/3 54/2/3
f 56/2/3 53/2/3 55/2/3
f 57/2/3 53/2/3 56/2/3
f 58/2/3 53/2/3 57/2/3
f 59/2/3 53/2/3 58/2/3
f 60/2/3 53/2/3 59/2/3
f 61/2/3 53/2/3 60/2/3
f 62/2/3 53/2/3 61/2/3
f 63/2/3 53/2/3 62/2/3
f 64/2/3 53/2/3 63/2/3
f 65/1/3 36/1/3 53/1/3
f 65/2/3 53/2/3 64/2/3
f 66/1/3 36/1/3 65/1/3
f 67/3/3 56/3/3 55/3/3
f 67/2/3 57/2/3 56/2/3
f 68/2/3 57/2/3 67/2/3
f 69/3/3 64/3/3 63/3/3
f 69/2/3 66/2/3 65/2/3
f 69/2/3 65/2/3 64/2/3
f 70/2/3 66/2/3 69/2/3
f 71/2/3 57/2/3 68/2/3
f 72/3/3 58/3/3 57/3/3
f 72/2/3 57/2/3 71/2/3
f 73/1/3 68/1/3 67/1/3
f 73/2/3 71/2/3 68/2/3
f 74/1/3 72/1/3 71/1/3
f 74/2/3 71/2/3 73/2/3
f 75/1/3 61/1/3 60/1/3
f 75/3/3 62/3/3 61/3/3
f 76/1/3 63/1/3 62/1/3
f 76/3/3 62/3/3 75/3/3
f 77/2/3 66/2/3 70/2/3
f 78/1/3 36/1/3 66/1/3
f 78/2/3 66/2/3 77/2/3
f 79/2/3 77/2/3 70/2/3
f 79/1/3 70/1/3 69/1/3
f 80/1/3 78/1/3 77/1/3
f 80/2/3 77/2/3 79/2/3
f 81/1/3 59/1/3 58/1/3
f 81/3/3 60/3/3 59/3/3
f 82/1/3 75/1/3 60/1/3
f 82/3/3 60/3/3 81/3/3
f 82/1/3 76/1/3 75/1/3
f 83/1/3 11/1/3 9/1/3
f 83/3/3 12/3/3 11/3/3
f 84/1/3 13/1/3 12/1/3
f 84/3/3 12/3/3 83/3/3
f 85/3/3 54/3/3 13/3/3
f 85/1/3 13/1/3 84/1/3
f 86/1/3 55/1/3 54/1/3
f 86/3/3 54/3/3 85/3/3
f 87/3/3 67/3/3 55/3/3
f 87/1/3 55/1/3 86/1/3
f 88/1/3 73/1/3 67/1/3
f 88/3/3 67/3/3 87/3/3
f 89/3/3 74/3/3 73/3/3
f 89/1/3 73/1/3 88/1/3
f 90/1/3 72/1/3 74/1/3
f 90/3/3 74/3/3 89/3/3
f 91/3/3 58/3/3 72/3/3
f 91/1/3 72/1/3 90/1/3
f 92/1/3 82/1/3 81/1/3
f 92/3/3 58/3/3 91/3/3
f 92/1/3 81/1/3 58/1/3
f 93/1/3 76/1/3 82/1/3
f 93/1/3 82/1/3 92/1/3
f 93/1/3 63/1/3 76/1/3
f 93/3/3 69/3/3 63/3/3
f 94/1/3 80/1/3 79/1/3
f 94/3/3 69/3/3 93/3/3
f 94/1/3 79/1/3 69/1/3
f 95/1/3 92/1/3 91/1/3
f 95/1/3 91/1/3 90/1/3
f 95/1/3 94/1/3 93/1/3
f 95/1/3 88/1/3 87/1/3
f 95/1/3 89/1/3 88/1/3
f 95/1/3 93/1/3 92/1/3
f 95/1/3 83/1/3 9/1/3
f 95/1/3 87/1/3 86/1/3
f 95/1/3 90/1/3 89/1/3
f 95/1/3 86/1/3 85/1/3
f 95/1/3 85/1/3 84/1/3
f 95/1/3 84/1/3 83/1/3
f 96/1/3 80/1/3 94/1/3
f 96/1/3 94/1/3 95/1/3
f 96/1/3 78/1/3 80/1/3
f 96/1/3 10/1/3 36/1/3
f 96/1/3 36/1/3 78/1/3
f 97/1/4 98/1/4 99/1/4
f 99/1/4 98/1/4 100/1/4
f 100/1/4 98/1/4 101/1/4
f 101/1/4 98/1/4 102/1/4
f 102/1/4 98/1/4 103/1/4
f 103/1/4 98/1/4 104/1/4
f 104/1/4 98/1/4 105/1/4
f 105/1/4 98/1/4 106/1/4
f 106/1/4 98/1/4 107/1/4
f 107/1/4 98/1/4 108/1/4
f 108/1/4 98/1/4 109/1/4
f 109/1/4 98/1/4 110/1/4
f 110/1/4 98/1/4 111/1/4
f 111/1/4 98/1/4 112/1/4
f 112/1/4 98/1/4 113/1/4
f 113/1/4 98/1/4 114/1/4
f 114/1/4 98/1/4 115/1/4
f 115/1/4 98/1/4 116/1/4
f 116/1/4 98/1/4 117/1/4
f 117/1/4 98/1/4 118/1/4
f 113/3/4 114/3/4 119/3/4
f 114/1/4 115/1/4 120/1/4
f 119/3/4 114/3/4 120/3/4
f 115/3/4 116/3/4 121/3/4
f 120/1/4 115/1/4 121/1/4
f 116/1/4 117/1/4 122/1/4
f 121/3/4 116/3/4 122/3/4
f 117/3/4 118/3/4 123/3/4
f 122/1/4 117/1/4 123/1/4
f 118/1/4 98/1/4 124/1/4
f 123/3/4 118/3/4 124/3/4
f 102/1/4 103/1/4 125/1/4
f 103/3/4 104/3/4 125/3/4
f 104/1/4 105/1/4 126/1/4
f 125/3/4 104/3/4 126/3/4
f 105/3/4 106/3/4 127/3/4
f 126/1/4 105/1/4 127/1/4
f 106/1/4 107/1/4 128/1/4
f 127/3/4 106/3/4 128/3/4
f 107/3/4 108/3/4 129/3/4
f 128/1/4 107/1/4 129/1/4
f 108/1/4 109/1/4 130/1/4
f 129/3/4 108/3/4 130/3/4
f 109/3/4 110/3/4 131/3/4
f 130/1/4 109/1/4 131/1/4
f 110/1/4 111/1/4 132/1/4
f 131/3/4 110/3/4 132/3/4
f 111/3/4 112/3/4 133/3/4
f 132/1/4 111/1/4 133/1/4
f 112/1/4 113/1/4 134/1/4
f 133/3/4 112/3/4 134/3/4
f 113/3/4 119/3/4 135/3/4
f 134/1/4 113/1/4 135/1/4
f 123/1/4 124/1/4 136/1/4
f 135/3/4 119/3/4 136/3/4
f 122/1/4 123/1/4 136/1/4
f 121/1/4 122/1/4 136/1/4
f 120/1/4 121/1/4 136/1/4
f 119/1/4 120/1/4 136/1/4
f 136/1/4 124/1/4 137/1/4
f 101/3/4 102/3/4 138/3/4
f 102/1/4 125/1/4 138/1/4
f 134/2/4 135/2/4 139/2/4
f 138/1/4 125/1/4 139/1/4
f 136/2/4 137/2/4 139/2/4
f 135/2/4 136/2/4 139/2/4
f 133/2/4 134/2/4 139/2/4
f 132/2/4 133/2/4 139/2/4
f 131/2/4 132/2/4 139/2/4
f 130/2/4 131/2/4 139/2/4
f 129/2/4 130/2/4 139/2/4
f 128/2/4 129/2/4 139/2/4
f 127/2/4 128/2/4 139/2/4
f 126/2/4 127/2/4 139/2/4
f 125/2/4 126/2/4 139/2/4
f 137/1/4 124/1/4 140/1/4
f 139/2/4 137/2/4 140/2/4
f 140/1/4 124/1/4 141/1/4
f 138/2/4 139/2/4 142/2/4
f 101/3/4 138/3/4 142/3/4
f 140/2/4 141/2/4 142/2/4
f 139/2/4 140/2/4 142/2/4
f 142/2/4 141/2/4 143/2/4
f 143/2/4 141/2/4 144/2/4
f 144/2/4 141/2/4 145/2/4
f 145/2/4 141/2/4 146/2/4
f 146/2/4 141/2/4 147/2/4
f 147/2/4 141/2/4 148/2/4
f 148/2/4 141/2/4 149/2/4
f 149/2/4 141/2/4 150/2/4
f 150/2/4 141/2/4 151/2/4
f 151/2/4 141/2/4 152/2/4
f 141/1/4 124/1/4 153/1/4
f 152/2/4 141/2/4 153/2/4
f 153/1/4 124/1/4 154/1/4
f 143/3/4 144/3/4 155/3/4
f 144/2/4 145/2/4 155/2/4
f 155/2/4 145/2/4 156/2/4
f 151/3/4 152/3/4 157/3/4
f 153/2/4 154/2/4 157/2/4
f 152/2/4 153/2/4 157/2/4
f 157/2/4 154/2/4 158/2/4
f 156/2/4 145/2/4 159/2/4
f 145/3/4 146/3/4 160/3/4
f 159/2/4 145/2/4 160/2/4
f 155/1/4 156/1/4 161/1/4
f 156/2/4 159/2/4 161/2/4
f 159/1/4 160/1/4 162/1/4
f 161/2/4 159/2/4 162/2/4
f 148/1/4 149/1/4 163/1/4
f 149/3/4 150/3/4 163/3/4
f 150/1/4 151/1/4 164/1/4
f 163/3/4 150/3/4 164/3/4
f 158/2/4 154/2/4 165/2/4
f 154/1/4 124/1/4 166/1/4
f 165/2/4 154/2/4 166/2/4
f 158/2/4 165/2/4 167/2/4
f 157/1/4 158/1/4 167/1/4
f 165/1/4 166/1/4 168/1/4
f 167/2/4 165/2/4 168/2/4
f 146/1/4 147/1/4 169/1/4
f 147/3/4 148/3/4 169/3/4
f 148/1/4 163/1/4 170/1/4
f 169/3/4 148/3/4 170/3/4
f 163/1/4 164/1/4 170/1/4
f 97/1/4 99/1/4 171/1/4
f 99/3/4 100/3/4 171/3/4
f 100/1/4 101/1/4 172/1/4
f 171/3/4 100/3/4 172/3/4
f 101/3/4 142/3/4 173/3/4
f 172/1/4 101/1/4 173/1/4
f 142/1/4 143/1/4 174/1/4
f 173/3/4 142/3/4 174/3/4
f 143/3/4 155/3/4 175/3/4
f 174/1/4 143/1/4 175/1/4
f 155/1/4 161/1/4 176/1/4
f 175/3/4 155/3/4 176/3/4
f 161/3/4 162/3/4 177/3/4
f 176/1/4 161/1/4 177/1/4
f 162/1/4 160/1/4 178/1/4
f 177/3/4 162/3/4 178/3/4
f 160/3/4 146/3/4 179/3/4
f 178/1/4 160/1/4 179/1/4
f 169/1/4 170/1/4 180/1/4
f 179/3/4 146/3/4 180/3/4
f 146/1/4 169/1/4 180/1/4
f 170/1/4 164/1/4 181/1/4
f 180/1/4 170/1/4 181/1/4
f 164/1/4 151/1/4 181/1/4
f 151/3/4 157/3/4 181/3/4
f 167/1/4 168/1/4 182/1/4
f 181/3/4 157/3/4 182/3/4
f 157/1/4 167/1/4 182/1/4
f 179/1/4 180/1/4 183/1/4
f 178/1/4 179/1/4 183/1/4
f 181/1/4 182/1/4 183/1/4
f 175/1/4 176/1/4 183/1/4
f 176/1/4 177/1/4 183/1/4
f 180/1/4 181/1/4 183/1/4
f 97/1/4 171/1/4 183/1/4
f 174/1/4 175/1/4 183/1/4
f 177/1/4 178/1/4 183/1/4
f 173/1/4 174/1/4 183/1/4
f 172/1/4 173/1/4 183/1/4
f 171/1/4 172/1/4 183/1/4
f 182/1/4 168/1/4 184/1/4
f 183/1/4 182/1/4 184/1/4
f 168/1/4 166/1/4 184/1/4
f 124/1/4 98/1/4 184/1/4
f 166/1/4 124/1/4 184/1/4
f 187/1/5 186/1/5 185/1/5
f 188/1/5 186/1/5 187/1/5
f 189/1/6 190/1/6 191/1/6
f 191/1/6 190/1/6 192/1/6
